<svg width="183" height="182" viewBox="0 0 183 182" fill="none" xmlns="http://www.w3.org/2000/svg">
<path d="M89.6338 177.414L80.6156 176.787L80.6799 175.862L84.6543 176.138L85.382 165.667L86.4674 165.742L85.7397 176.213L89.6981 176.488L89.6338 177.414Z" fill="white"/>
<path d="M72.787 175.487L71.7381 175.198L73.0566 170.416L66.5166 168.613L65.1982 173.395L64.1493 173.106L67.186 162.093L68.2349 162.382L66.7633 167.719L73.3032 169.522L74.7748 164.185L75.8237 164.474L72.787 175.487Z" fill="white"/>
<path d="M54.9844 169.499L47.9702 165.891L48.3948 165.066L54.4415 168.177L56.3299 164.506L50.6674 161.593L51.0919 160.767L56.7545 163.681L58.8186 159.668L52.7007 156.521L53.1253 155.696L60.2106 159.341L54.9844 169.499Z" fill="white"/>
<path d="M37.0823 148.331C37.5121 147.932 37.8024 147.526 37.9532 147.114C38.1041 146.701 38.1492 146.295 38.0886 145.894C38.0206 145.485 37.8658 145.079 37.6243 144.675C37.375 144.278 37.069 143.891 36.7062 143.515C36.4989 143.3 36.2424 143.096 35.9366 142.901C35.6309 142.707 35.3091 142.566 34.9712 142.476C34.6183 142.387 34.2678 142.369 33.9198 142.423C33.5642 142.485 33.2366 142.66 32.9371 142.949C32.7068 143.171 32.5589 143.417 32.4937 143.687C32.421 143.95 32.4085 144.221 32.4562 144.501C32.4965 144.774 32.5783 145.043 32.7017 145.309C32.8174 145.583 32.9448 145.838 33.0838 146.074L34.4004 148.339C34.5685 148.636 34.7175 148.944 34.8475 149.264C34.9701 149.575 35.036 149.889 35.0453 150.206C35.0546 150.523 34.9998 150.843 34.8807 151.165C34.7543 151.48 34.5298 151.792 34.2073 152.103C34.0077 152.296 33.7364 152.483 33.3937 152.666C33.0509 152.848 32.6605 152.95 32.2226 152.972C31.7772 152.987 31.2962 152.888 30.7796 152.675C30.2553 152.469 29.7155 152.078 29.1602 151.502C28.7678 151.095 28.4477 150.656 28.1998 150.183C27.9519 149.711 27.8022 149.233 27.7507 148.749C27.6991 148.266 27.7569 147.788 27.9239 147.315C28.0759 146.843 28.363 146.403 28.7853 145.996L29.5405 146.779C29.2405 147.098 29.0382 147.434 28.9337 147.787C28.8142 148.139 28.7775 148.493 28.8239 148.848C28.8551 149.203 28.9619 149.552 29.1442 149.895C29.3115 150.238 29.5358 150.555 29.8171 150.847C30.0763 151.115 30.3587 151.347 30.6645 151.541C30.9551 151.735 31.2583 151.865 31.5739 151.931C31.8745 151.997 32.1839 151.987 32.5023 151.903C32.8207 151.818 33.1335 151.627 33.4406 151.331C33.6326 151.146 33.7719 150.953 33.8586 150.75C33.9301 150.548 33.9603 150.341 33.9491 150.13C33.9379 149.918 33.8926 149.71 33.8134 149.505C33.7267 149.292 33.6212 149.083 33.4967 148.877L32.0596 146.395C31.855 146.029 31.6882 145.664 31.559 145.3C31.4148 144.935 31.3346 144.575 31.3184 144.22C31.2872 143.865 31.3388 143.519 31.4732 143.182C31.6001 142.837 31.8326 142.502 32.1704 142.176C32.2626 142.088 32.3965 141.981 32.5723 141.856C32.7407 141.723 32.9502 141.61 33.2009 141.516C33.4364 141.422 33.7092 141.36 34.019 141.327C34.3215 141.288 34.6604 141.317 35.0359 141.414C35.3962 141.511 35.7852 141.692 36.2028 141.956C36.6281 142.212 37.074 142.583 37.5404 143.066C38.0069 143.55 38.3862 144.051 38.6785 144.569C38.9632 145.095 39.131 145.615 39.1819 146.129C39.2329 146.643 39.1557 147.154 38.9503 147.664C38.7375 148.165 38.3665 148.649 37.8375 149.114L37.0823 148.331Z" fill="white"/>
<path d="M20.3251 140.675L19.7462 139.754L25.734 135.991C26.2939 135.639 26.7328 135.275 27.0507 134.899C27.3596 134.528 27.5639 134.142 27.6635 133.739C27.7541 133.342 27.7475 132.93 27.6435 132.504C27.5305 132.084 27.335 131.653 27.0569 131.21C26.7731 130.758 26.4664 130.391 26.1366 130.107C25.7979 129.828 25.43 129.644 25.0329 129.553C24.6268 129.468 24.1898 129.484 23.722 129.602C23.2451 129.725 22.7268 129.963 22.1668 130.315L16.179 134.078L15.6001 133.156L21.7911 129.266C22.2878 128.954 22.8074 128.728 23.3498 128.589C23.8774 128.446 24.4048 128.423 24.932 128.52C25.4534 128.608 25.9639 128.829 26.4634 129.183C26.9482 129.534 27.4034 130.047 27.8291 130.725C28.2491 131.393 28.5147 132.026 28.6258 132.624C28.7222 133.219 28.6999 133.774 28.5587 134.291C28.4118 134.799 28.1625 135.265 27.8108 135.687C27.4444 136.107 27.0128 136.472 26.5161 136.784L20.3251 140.675Z" fill="white"/>
<path d="M16.315 122.135L14.9025 118.324C14.7876 118.014 14.6332 117.736 14.4394 117.489C14.2355 117.246 14.0047 117.053 13.7468 116.91C13.4889 116.767 13.2127 116.681 12.9182 116.654C12.61 116.62 12.2908 116.665 11.9608 116.787C11.3006 117.032 10.851 117.414 10.6118 117.935C10.3726 118.456 10.3976 119.107 10.6868 119.887L12.0993 123.698L16.315 122.135ZM11.6073 125.04L9.78883 120.134C9.62571 119.694 9.52686 119.259 9.4923 118.828C9.45402 118.387 9.49615 117.979 9.61868 117.604C9.7275 117.222 9.93042 116.88 10.2275 116.576C10.5108 116.266 10.8925 116.023 11.3726 115.845C12.0527 115.593 12.7077 115.549 13.3375 115.714C13.9673 115.878 14.4802 116.28 14.876 116.918L14.906 116.907C14.8263 116.538 14.8138 116.213 14.8685 115.931C14.9133 115.653 15.0147 115.405 15.1729 115.187C15.3273 114.959 15.5334 114.763 15.7912 114.599C16.0353 114.429 16.3137 114.275 16.6263 114.136C16.8026 114.059 17.019 113.968 17.2753 113.861C17.5316 113.755 17.7893 113.637 18.0482 113.507C18.2971 113.38 18.5305 113.243 18.7483 113.094C18.9523 112.938 19.099 112.782 19.1883 112.623L19.6053 113.749C19.5275 113.846 19.4261 113.94 19.3009 114.032C19.162 114.118 19.0212 114.198 18.8786 114.274C18.7223 114.343 18.571 114.411 18.4246 114.476C18.2783 114.542 18.152 114.6 18.0457 114.651C17.673 114.812 17.311 114.986 16.9594 115.173C16.5942 115.354 16.2944 115.573 16.0599 115.831C15.8118 116.082 15.6496 116.381 15.5734 116.728C15.4934 117.064 15.5524 117.469 15.7504 117.942L17.1851 121.812L21.9409 120.05L22.3191 121.07L11.6073 125.04Z" fill="white"/>
<path d="M11.5152 106.177L10.9124 102.158C10.8634 101.831 10.7692 101.527 10.63 101.246C10.4802 100.966 10.2938 100.73 10.0707 100.537C9.84759 100.344 9.59469 100.204 9.31198 100.117C9.01715 100.021 8.69568 99.999 8.34758 100.051C7.65136 100.156 7.13289 100.438 6.79215 100.899C6.45142 101.36 6.34275 102.002 6.46615 102.825L7.06891 106.844L11.5152 106.177ZM6.31254 108.058L5.53655 102.883C5.46694 102.419 5.45931 101.973 5.51364 101.544C5.5664 101.105 5.69114 100.714 5.88788 100.372C6.0725 100.02 6.34123 99.7265 6.69409 99.4902C7.03482 99.2449 7.45835 99.0844 7.96469 99.0084C8.682 98.9008 9.33206 98.9921 9.91486 99.2822C10.4977 99.5723 10.9175 100.07 11.1743 100.776L11.206 100.771C11.2034 100.394 11.2577 100.073 11.369 99.8084C11.4697 99.5452 11.6198 99.3231 11.8192 99.1422C12.017 98.9508 12.2588 98.8012 12.5447 98.6937C12.8184 98.5771 13.1225 98.483 13.4569 98.4112C13.6452 98.3722 13.8756 98.3269 14.1483 98.2752C14.421 98.2235 14.6974 98.1605 14.9775 98.0861C15.247 98.0133 15.5036 97.9263 15.7472 97.8251C15.9788 97.7148 16.1544 97.5914 16.2742 97.4548L16.4521 98.6415C16.3561 98.7206 16.2375 98.7924 16.0961 98.8567C15.9426 98.9121 15.7884 98.9622 15.6333 99.007C15.4661 99.0429 15.3042 99.078 15.1475 99.1122C14.9909 99.1465 14.8553 99.1776 14.7409 99.2056C14.3432 99.2868 13.9531 99.383 13.5708 99.4943C13.1762 99.5966 12.8379 99.7498 12.5557 99.954C12.2614 100.149 12.0414 100.409 11.8959 100.732C11.7487 101.046 11.7236 101.454 11.8207 101.957L12.4329 106.039L17.4488 105.287L17.6102 106.363L6.31254 108.058Z" fill="white"/>
<path d="M4.62859 90.4081L5.0291 82.5303L5.9559 82.5774L5.61064 89.3686L9.73331 89.5782L10.0566 83.2185L10.9834 83.2656L10.6601 89.6254L15.1663 89.8545L15.5156 82.9833L16.4424 83.0304L16.0379 90.9882L4.62859 90.4081Z" fill="white"/>
<path d="M13.4571 73.9146L14.5714 69.5589L8.35087 70.2466L13.4571 73.9146ZM7.15802 70.5195L7.4594 69.3414L19.6373 67.8326L19.3478 68.9641L15.5617 69.4324L14.2728 74.4701L17.373 76.6835L17.0875 77.7996L7.15802 70.5195Z" fill="white"/>
<path d="M11.6364 56.9043L12.1034 55.9216L21.5832 60.4272L24.3305 54.6468L25.1686 55.0452L21.9543 61.8082L11.6364 56.9043Z" fill="white"/>
<path d="M18.9705 43.4122L19.5775 42.5093L29.0586 48.8823L28.4517 49.7853L18.9705 43.4122Z" fill="white"/>
<path d="M31.0197 39.9472C31.4406 40.3561 31.8606 40.6254 32.2799 40.7551C32.6992 40.8848 33.1075 40.9092 33.5048 40.8284C33.9094 40.7397 34.3075 40.5645 34.6989 40.3027C35.0826 40.0336 35.4531 39.7084 35.8104 39.327C36.0146 39.109 36.2059 38.8424 36.3843 38.5272C36.5627 38.212 36.6878 37.8834 36.7597 37.5415C36.8311 37.1845 36.831 36.8336 36.7594 36.4888C36.68 36.1367 36.4885 35.8184 36.1849 35.534C35.9514 35.3152 35.6979 35.1801 35.4246 35.1286C35.1585 35.0694 34.8869 35.0707 34.6097 35.1325C34.3398 35.1866 34.075 35.282 33.8153 35.4188C33.5479 35.5482 33.2996 35.6884 33.0706 35.8392L30.8759 37.2691C30.5875 37.452 30.2873 37.6165 29.9751 37.7625C29.6702 37.9008 29.3597 37.9826 29.0435 38.008C28.7274 38.0334 28.4054 37.9948 28.0776 37.8923C27.757 37.782 27.4333 37.5737 27.1064 37.2674C26.904 37.0778 26.703 36.8164 26.5035 36.4833C26.304 36.1502 26.1821 35.7656 26.1377 35.3293C26.1005 34.8853 26.1753 34.3999 26.3619 33.8731C26.5407 33.339 26.9036 32.7801 27.4505 32.1962C27.8371 31.7837 28.2598 31.4416 28.7189 31.1701C29.1779 30.8986 29.6477 30.7248 30.1282 30.6488C30.6087 30.5727 31.089 30.6061 31.569 30.749C32.0486 30.8767 32.5025 31.1412 32.9306 31.5423L32.1867 32.3363C31.853 32.0528 31.5074 31.8679 31.1499 31.7814C30.7919 31.6799 30.4366 31.6613 30.084 31.7256C29.7309 31.7748 29.3879 31.8992 29.0548 32.0987C28.7212 32.2831 28.4158 32.5233 28.1387 32.8191C27.8834 33.0915 27.6666 33.3853 27.4882 33.7005C27.3093 34.0007 27.1949 34.31 27.1449 34.6286C27.0944 34.9321 27.1196 35.2407 27.2204 35.5544C27.3211 35.8681 27.5272 36.1707 27.8386 36.4625C28.0332 36.6448 28.2336 36.7741 28.4398 36.8504C28.6456 36.9116 28.8537 36.9312 29.0643 36.9093C29.2749 36.8873 29.4806 36.8316 29.6815 36.742C29.8896 36.6447 30.0933 36.5286 30.2927 36.3938L32.6982 34.8326C33.0532 34.6097 33.4094 34.4245 33.7668 34.277C34.1238 34.1145 34.479 34.0161 34.8326 33.982C35.1857 33.9327 35.5339 33.9667 35.8773 34.0838C36.228 34.1931 36.5746 34.4082 36.9171 34.7291C37.0105 34.8166 37.1241 34.945 37.2579 35.1142C37.399 35.2756 37.5226 35.4791 37.6287 35.7247C37.7343 35.9552 37.811 36.2243 37.8588 36.5322C37.9138 36.8323 37.9023 37.1722 37.8241 37.5521C37.7454 37.9169 37.5848 38.3145 37.3423 38.745C37.1075 39.1828 36.7604 39.6469 36.3009 40.1373C35.8415 40.6277 35.3603 41.0321 34.8576 41.3503C34.347 41.6612 33.8364 41.8552 33.3257 41.9322C32.8151 42.0092 32.3002 41.9581 31.7812 41.7788C31.2695 41.5917 30.7677 41.2458 30.2759 40.7411L31.0197 39.9472Z" fill="white"/>
<path d="M36.8576 23.5752L44.19 18.2878L44.7328 19.0405L41.5013 21.3707L47.6404 29.8841L46.7579 30.5205L40.6189 22.0071L37.4004 24.3279L36.8576 23.5752Z" fill="white"/>
<path d="M61.0824 9.89821L67.9725 7.64857L68.2605 8.53074L62.4047 10.4427L63.686 14.3668L68.8877 12.6684L69.1758 13.5506L63.974 15.249L65.6625 20.4203L64.6282 20.758L61.0824 9.89821Z" fill="white"/>
<path d="M76.1063 5.83431L77.1844 5.6876L78.5997 16.0877L84.9412 15.2248L85.0663 16.1443L77.6467 17.154L76.1063 5.83431Z" fill="white"/>
<path d="M91.4126 4.59149L92.5005 4.6055L92.3533 16.0286L91.2654 16.0145L91.4126 4.59149Z" fill="white"/>
<path d="M109.34 18.1144L108.569 17.9737L108.801 15.9016L108.769 15.8959C108.508 16.2602 108.208 16.5635 107.871 16.8056C107.547 17.0392 107.2 17.2199 106.829 17.3475C106.461 17.4647 106.075 17.5298 105.671 17.543C105.278 17.5581 104.877 17.5283 104.468 17.4537C103.586 17.293 102.839 16.994 102.224 16.5568C101.623 16.1109 101.15 15.5802 100.807 14.9647C100.464 14.3492 100.246 13.6698 100.154 12.9265C100.062 12.1833 100.086 11.4234 100.228 10.6468C100.37 9.8703 100.615 9.15059 100.963 8.48769C101.312 7.82479 101.755 7.26593 102.294 6.8111C102.834 6.34579 103.463 6.01599 104.182 5.82171C104.913 5.61885 105.719 5.59778 106.6 5.75849C107.188 5.86563 107.73 6.04573 108.226 6.29879C108.722 6.55186 109.146 6.87311 109.497 7.26253C109.849 7.65196 110.125 8.10336 110.324 8.61674C110.523 9.13012 110.619 9.70594 110.611 10.3442L109.54 10.149C109.568 9.818 109.517 9.47261 109.388 9.11287C109.271 8.74455 109.079 8.39527 108.814 8.06504C108.56 7.73672 108.233 7.44939 107.833 7.20305C107.435 6.94621 106.969 6.76901 106.434 6.67144C105.689 6.5356 105.023 6.56056 104.436 6.74631C103.849 6.93207 103.339 7.22949 102.907 7.63857C102.487 8.03907 102.14 8.51784 101.865 9.07487C101.6 9.63382 101.411 10.2229 101.298 10.842C101.187 11.4506 101.156 12.0684 101.205 12.6952C101.265 13.3135 101.42 13.8893 101.67 14.4227C101.932 14.9476 102.305 15.4005 102.789 15.7814C103.272 16.1623 103.886 16.4207 104.632 16.5565C105.251 16.6694 105.82 16.6701 106.339 16.5587C106.87 16.4388 107.337 16.2258 107.74 15.9197C108.143 15.6137 108.474 15.2241 108.734 14.751C108.994 14.2779 109.173 13.7414 109.271 13.1413L105.446 12.4439L105.613 11.531L110.382 12.4006L109.34 18.1144Z" fill="white"/>
<path d="M120.176 9.50335L121.178 9.92636L119.25 14.4961L125.5 17.1337L127.429 12.5639L128.431 12.9869L123.99 23.5122L122.987 23.0892L125.139 17.9887L118.889 15.3511L116.737 20.4516L115.734 20.0286L120.176 9.50335Z" fill="white"/>
<path d="M135.986 17.0547L143.452 22.1515L142.929 22.9179L139.639 20.6717L133.721 29.3405L132.823 28.727L138.74 20.0583L135.463 17.8211L135.986 17.0547Z" fill="white"/>
<path d="M157.14 35.2132L161.953 41.4629L161.218 42.029L157.069 36.6414L153.798 39.16L157.683 44.2054L156.948 44.7716L153.063 39.7262L149.488 42.4791L153.686 47.9301L152.95 48.4963L148.089 42.1832L157.14 35.2132Z" fill="white"/>
<path d="M166.12 47.9498L166.692 49.095L163.855 54.1234L169.629 54.9787L170.172 56.0667L163.447 55.0605L160.051 61.3694L159.465 60.1955L162.424 54.8381L156.342 53.9397L155.799 52.8517L162.896 53.8867L166.12 47.9498Z" fill="white"/>
<path d="M168.191 66.781L169.166 70.3959C169.363 71.1272 169.708 71.6694 170.201 72.0226C170.694 72.3758 171.321 72.4496 172.083 72.2442C172.846 72.0387 173.351 71.6594 173.599 71.1063C173.848 70.5532 173.874 69.911 173.677 69.1798L172.702 65.5649L168.191 66.781ZM173.315 64.2728L174.635 69.17C174.768 69.6643 174.817 70.1317 174.781 70.5723C174.756 71.01 174.643 71.4106 174.442 71.7739C174.252 72.1345 173.982 72.4448 173.633 72.7048C173.283 72.9647 172.861 73.1614 172.367 73.2947C171.872 73.4279 171.409 73.4701 170.976 73.4211C170.543 73.3721 170.148 73.241 169.792 73.0275C169.447 72.8114 169.148 72.5219 168.895 72.1591C168.653 71.7935 168.465 71.3636 168.332 70.8692L167.295 67.0226L162.568 68.297L162.285 67.2465L173.315 64.2728Z" fill="white"/>
<path d="M177.004 81.6144L177.506 89.4864L176.58 89.5454L176.147 82.7592L172.027 83.0219L172.432 89.377L171.506 89.4361L171.101 83.081L166.598 83.3681L167.036 90.2341L166.11 90.2932L165.603 82.3413L177.004 81.6144Z" fill="white"/>
<path d="M171.695 98.6913L171.144 102.718C171.099 103.045 171.104 103.364 171.158 103.673C171.223 103.983 171.336 104.262 171.496 104.51C171.656 104.758 171.859 104.964 172.106 105.126C172.362 105.301 172.664 105.413 173.013 105.461C173.711 105.556 174.288 105.43 174.744 105.084C175.201 104.737 175.485 104.152 175.598 103.327L176.149 99.3008L171.695 98.6913ZM177.216 98.3487L176.507 103.532C176.443 103.997 176.325 104.428 176.152 104.824C175.978 105.231 175.749 105.571 175.464 105.844C175.188 106.13 174.847 106.336 174.442 106.464C174.046 106.603 173.595 106.638 173.087 106.569C172.369 106.471 171.771 106.2 171.293 105.758C170.815 105.316 170.552 104.72 170.504 103.971L170.472 103.966C170.369 104.329 170.226 104.622 170.045 104.845C169.875 105.069 169.668 105.24 169.426 105.357C169.182 105.485 168.908 105.561 168.604 105.584C168.308 105.619 167.99 105.624 167.649 105.599C167.457 105.583 167.223 105.562 166.947 105.535C166.671 105.508 166.388 105.491 166.098 105.483C165.819 105.477 165.548 105.489 165.286 105.518C165.033 105.558 164.83 105.627 164.676 105.725L164.839 104.536C164.953 104.487 165.087 104.451 165.241 104.429C165.404 104.419 165.566 104.415 165.727 104.415C165.898 104.428 166.063 104.44 166.223 104.451C166.383 104.462 166.522 104.47 166.64 104.475C167.044 104.509 167.446 104.527 167.844 104.527C168.251 104.54 168.619 104.488 168.947 104.371C169.284 104.267 169.568 104.079 169.799 103.81C170.028 103.55 170.167 103.166 170.215 102.655L170.775 98.5655L165.75 97.8779L165.897 96.8L177.216 98.3487Z" fill="white"/>
<path d="M173.868 115.488L173.549 116.528L162.625 113.185L162.944 112.144L173.868 115.488Z" fill="white"/>
<path d="M169.737 126.821L159.099 125.588L166.187 133.686L165.452 135.107L155.305 129.858L155.805 128.892L164.573 133.427L164.588 133.399L157.613 125.396L158.083 124.486L168.579 125.682L168.594 125.654L159.825 121.118L160.325 120.152L170.472 125.4L169.737 126.821Z" fill="white"/>
<path d="M159.789 143.386L154.729 149.438L154.017 148.843L158.379 143.626L155.212 140.978L151.128 145.863L150.416 145.268L154.5 140.383L151.038 137.489L146.626 142.767L145.914 142.172L151.024 136.059L159.789 143.386Z" fill="white"/>
<path d="M148.401 155.71L147.447 156.464L136.234 153.004L136.209 153.024L142.198 160.608L141.344 161.282L134.264 152.317L135.219 151.563L146.431 155.023L146.456 155.003L140.467 147.418L141.321 146.744L148.401 155.71Z" fill="white"/>
<path d="M134.15 165.93L126.085 170.014L125.666 169.186L129.22 167.386L124.479 158.022L125.449 157.531L130.191 166.895L133.731 165.102L134.15 165.93Z" fill="white"/>
<path d="M107.108 168.196L107.273 169.109L103.337 169.821L103.172 168.908L107.108 168.196Z" fill="white"/>
</svg>
